<svg width="347" height="398" viewBox="0 0 347 398" fill="none" xmlns="http://www.w3.org/2000/svg">
<path d="M137.592 345C124.143 345 112.969 343.022 104.072 339.067C95.1742 335.111 88.5528 330.948 84.2075 326.576C80.0692 321.996 78 319.29 78 318.457L85.7594 306.278C85.7594 306.903 87.7252 309.297 91.6566 313.46C95.588 317.416 101.278 321.163 108.727 324.702C116.383 328.033 125.695 329.699 136.661 329.699C149.697 329.699 159.94 325.951 167.389 318.457C174.838 310.754 178.562 301.282 178.562 290.04C178.562 282.337 176.7 275.884 172.975 270.679C169.251 265.475 164.595 261.311 159.008 258.188C153.629 255.065 146.283 251.526 136.972 247.571C126.212 243.199 117.521 239.035 110.9 235.08C104.279 231.124 98.6918 225.712 94.1396 218.842C89.5874 211.764 87.3113 202.812 87.3113 191.986C87.3113 174.915 92.6912 161.384 103.451 151.391C114.211 141.19 128.591 136.089 146.593 136.089C155.491 136.089 163.457 137.443 170.492 140.149C177.735 142.647 183.528 145.458 187.874 148.58C192.219 151.495 194.391 153.16 194.391 153.577L191.288 167.317C191.288 166.9 189.219 165.235 185.08 162.32C180.942 159.406 175.665 156.699 169.251 154.201C162.836 151.703 155.698 150.454 147.835 150.454C136.247 150.454 127.143 153.681 120.522 160.134C113.9 166.588 110.59 175.332 110.59 186.365C110.59 194.068 112.348 200.522 115.866 205.726C119.591 210.723 124.143 214.782 129.523 217.905C135.109 221.028 142.455 224.463 151.559 228.21C162.526 232.79 171.32 237.162 177.941 241.325C184.563 245.281 190.15 250.902 194.702 258.188C199.461 265.474 201.841 274.843 201.841 286.293C201.841 297.743 199.151 307.944 193.771 316.895C188.598 325.639 181.149 332.509 171.424 337.505C161.698 342.502 150.421 345 137.592 345Z" fill="#FCF7F2"/>
<path d="M237.336 256.371V53H261V256.371H237.336Z" fill="#FCF7F2"/>
<rect x="4" y="4" width="339.204" height="389.926" stroke="#FCF7F2" stroke-width="7"/>
</svg>
