<?xml version="1.0" standalone="no"?>
<!DOCTYPE svg PUBLIC "-//W3C//DTD SVG 20010904//EN"
 "http://www.w3.org/TR/2001/REC-SVG-20010904/DTD/svg10.dtd">
<svg version="1.0" xmlns="http://www.w3.org/2000/svg"
 width="796.000000pt" height="796.000000pt" viewBox="0 0 796.000000 796.000000"
 preserveAspectRatio="xMidYMid meet">
<metadata>
Created by potrace 1.14, written by Peter Selinger 2001-2017
</metadata>
<g transform="translate(0.000000,796.000000) scale(0.100000,-0.100000)"
fill="#000000" stroke="none">
<path d="M522 7910 c2 -22 1 -40 -2 -40 -4 0 -5 -12 -4 -27 4 -43 5 -71 3
-170 0 -51 2 -96 5 -102 4 -5 3 -12 -1 -14 -5 -3 -6 -42 -3 -86 3 -45 2 -81
-1 -81 -3 0 -4 -12 -3 -27 4 -43 5 -71 3 -170 0 -51 2 -96 5 -102 4 -5 3 -12
-1 -14 -5 -3 -6 -42 -3 -86 3 -45 2 -81 -1 -81 -3 0 -4 -12 -3 -27 4 -43 7
-242 5 -310 -3 -66 -3 -94 -2 -128 2 -57 2 -171 0 -242 -1 -21 -1 -56 0 -78 1
-22 1 -67 2 -99 0 -33 2 -63 5 -68 3 -4 1 -8 -3 -8 -5 0 -8 -12 -7 -27 4 -43
5 -71 3 -170 0 -51 2 -96 5 -102 4 -5 3 -12 -1 -14 -5 -3 -6 -42 -3 -86 3 -45
2 -81 -1 -81 -3 0 -4 -12 -3 -27 4 -43 5 -71 3 -170 0 -51 2 -96 5 -102 4 -5
3 -12 -1 -14 -5 -3 -6 -42 -3 -86 3 -45 2 -81 -1 -81 -3 0 -4 -12 -3 -27 4
-43 7 -242 5 -310 -3 -66 -3 -94 -2 -128 2 -57 2 -171 0 -242 -1 -21 -1 -56 0
-78 1 -22 1 -67 2 -99 0 -33 2 -63 5 -68 3 -4 1 -8 -3 -8 -5 0 -8 -12 -7 -27
4 -43 5 -71 3 -170 0 -51 2 -96 5 -102 4 -5 3 -12 -1 -14 -5 -3 -6 -42 -3 -86
3 -45 2 -81 -1 -81 -3 0 -4 -12 -3 -27 4 -43 5 -71 3 -170 0 -51 2 -96 5 -102
4 -5 3 -12 -1 -14 -5 -3 -6 -42 -3 -86 3 -45 2 -81 -1 -81 -3 0 -4 -12 -3 -27
4 -43 7 -242 5 -310 -3 -66 -3 -94 -2 -128 2 -57 2 -171 0 -242 -1 -21 -1 -56
0 -78 1 -22 1 -67 2 -99 0 -33 2 -63 5 -68 3 -4 1 -8 -3 -8 -5 0 -8 -12 -7
-27 4 -43 5 -71 3 -170 0 -51 2 -96 5 -102 4 -5 3 -12 -1 -14 -5 -3 -6 -42 -3
-86 3 -45 2 -81 -1 -81 -3 0 -4 -12 -3 -27 4 -43 5 -71 3 -170 0 -51 2 -96 5
-102 4 -5 3 -12 -1 -14 -5 -3 -6 -42 -3 -86 3 -45 2 -81 -1 -81 -3 0 -4 -12
-3 -27 4 -43 7 -242 5 -310 -3 -66 -3 -94 -2 -128 2 -57 2 -171 0 -242 -1 -21
-1 -56 0 -78 1 -22 1 -67 2 -99 0 -33 2 -63 5 -68 3 -4 1 -8 -3 -8 -5 0 -8
-12 -7 -27 4 -42 5 -75 3 -103 -1 -14 -1 -30 0 -37 1 -10 760 -12 3464 -10
l3462 2 0 3965 0 3965 -3464 3 -3463 2 4 -40z m6780 -112 c3 -11 2 -7600 -1
-7635 -1 -8 -809 -11 -3321 -11 l-3320 0 0 3829 0 3829 3319 0 c2646 0 3320
-3 3323 -12z"/>
<path d="M5325 6900 l-69 -5 -1 -2023 c0 -1113 2 -2027 5 -2032 3 -4 109 -7
235 -6 l230 1 3 2032 2 2032 -167 3 c-93 2 -199 1 -238 -2z"/>
<path d="M3255 5229 c-33 -4 -63 -5 -67 -2 -5 2 -8 0 -8 -4 0 -5 -12 -10 -26
-11 -67 -5 -205 -49 -311 -99 -156 -73 -320 -217 -417 -365 -31 -47 -56 -88
-56 -91 0 -2 -10 -26 -22 -53 -12 -27 -23 -53 -24 -59 -1 -5 -9 -30 -17 -55
-57 -170 -67 -467 -21 -642 9 -35 17 -70 19 -79 7 -34 65 -150 106 -210 63
-94 172 -203 271 -269 98 -66 339 -186 563 -281 213 -89 458 -214 534 -272
117 -88 200 -188 251 -302 17 -38 31 -71 30 -73 -1 -1 2 -21 6 -45 10 -63 20
-208 14 -227 -1 -3 -3 -21 -6 -40 -35 -282 -208 -516 -456 -617 -56 -22 -158
-50 -223 -59 -45 -7 -284 -7 -330 0 -22 3 -58 8 -80 11 -124 15 -206 41 -335
102 -171 82 -298 179 -398 306 l-30 37 -43 -68 c-24 -37 -47 -68 -51 -70 -5
-2 -8 -9 -8 -16 0 -6 -11 -28 -25 -48 -35 -52 -27 -68 110 -203 80 -80 138
-120 278 -194 78 -41 309 -131 332 -130 8 0 97 -13 120 -18 86 -18 414 -25
530 -11 138 17 141 18 260 53 173 50 353 153 479 272 67 65 156 173 156 191 0
6 6 15 13 19 32 20 133 268 151 373 21 117 26 299 13 428 -13 119 -88 347
-119 360 -4 2 -8 8 -8 12 0 34 -133 192 -236 280 -81 71 -391 236 -629 335
-365 153 -511 234 -624 346 -148 147 -196 269 -195 504 1 152 21 243 82 360
42 80 163 208 227 240 22 11 42 22 45 25 12 12 118 47 200 66 45 11 303 13
360 3 30 -5 66 -11 80 -13 170 -27 475 -177 598 -293 7 -7 15 -13 17 -13 3 0
20 70 31 130 3 14 10 43 16 65 5 22 12 48 13 57 4 16 -19 40 -76 80 -13 10
-43 31 -66 47 -103 74 -416 199 -538 216 -27 4 -61 9 -75 11 -44 8 -323 10
-385 3z"/>
</g>
</svg>
