<svg width="28" height="24" viewBox="0 0 28 24" fill="none" xmlns="http://www.w3.org/2000/svg">
<path d="M6.84615 5H4.15385C3.58261 5 3.03477 5.25934 2.63085 5.72097C2.22692 6.1826 2 6.8087 2 7.46154L2 10.5385C2 11.1913 2.22692 11.8174 2.63085 12.279C3.03477 12.7407 3.58261 13 4.15385 13H6.84615C7.41739 13 7.96523 12.7407 8.36915 12.279C8.77308 11.8174 9 11.1913 9 10.5385V7.46154C9 6.8087 8.77308 6.1826 8.36915 5.72097C7.96523 5.25934 7.41739 5 6.84615 5V5ZM6.84615 10.5385H4.15385V7.46154H6.84615V10.5385Z" fill="#555454"/>
<path d="M15.3462 5H12.6538C12.0826 5 11.5348 5.25934 11.1308 5.72097C10.7269 6.1826 10.5 6.8087 10.5 7.46154V10.5385C10.5 11.1913 10.7269 11.8174 11.1308 12.279C11.5348 12.7407 12.0826 13 12.6538 13H15.3462C15.9174 13 16.4652 12.7407 16.8692 12.279C17.2731 11.8174 17.5 11.1913 17.5 10.5385V7.46154C17.5 6.8087 17.2731 6.1826 16.8692 5.72097C16.4652 5.25934 15.9174 5 15.3462 5V5ZM15.3462 10.5385H12.6538V7.46154H15.3462V10.5385Z" fill="#555454"/>
<path d="M23.8462 5H21.1538C20.5826 5 20.0348 5.25934 19.6308 5.72097C19.2269 6.1826 19 6.8087 19 7.46154V10.5385C19 11.1913 19.2269 11.8174 19.6308 12.279C20.0348 12.7407 20.5826 13 21.1538 13H23.8462C24.4174 13 24.9652 12.7407 25.3692 12.279C25.7731 11.8174 26 11.1913 26 10.5385V7.46154C26 6.8087 25.7731 6.1826 25.3692 5.72097C24.9652 5.25934 24.4174 5 23.8462 5V5ZM23.8462 10.5385H21.1538V7.46154H23.8462V10.5385Z" fill="#555454"/>
<rect x="2.75" y="16.75" width="22.5" height="1.5" rx="0.75" stroke="#555454" stroke-width="1.5"/>
</svg>
