<svg width="30" height="24" viewBox="0 0 30 24" fill="none" xmlns="http://www.w3.org/2000/svg">
<path d="M7.96874 4.72168H5.57291C5.06458 4.72168 4.57707 4.92521 4.21763 5.2875C3.85818 5.64978 3.65625 6.14115 3.65625 6.6535L3.65625 9.06827C3.65625 9.58062 3.85818 10.072 4.21763 10.4343C4.57707 10.7966 5.06458 11.0001 5.57291 11.0001H7.96874C8.47707 11.0001 8.96458 10.7966 9.32402 10.4343C9.68346 10.072 9.8854 9.58062 9.8854 9.06827V6.6535C9.8854 6.14115 9.68346 5.64978 9.32402 5.2875C8.96458 4.92521 8.47707 4.72168 7.96874 4.72168V4.72168ZM7.96874 9.06827H5.57291V6.6535H7.96874V9.06827Z" fill="#555454"/>
<path d="M16.198 4.72168H13.8022C13.2938 4.72168 12.8063 4.92521 12.4469 5.2875C12.0874 5.64978 11.8855 6.14115 11.8855 6.6535V9.06827C11.8855 9.58062 12.0874 10.072 12.4469 10.4343C12.8063 10.7966 13.2938 11.0001 13.8022 11.0001H16.198C16.7063 11.0001 17.1938 10.7966 17.5533 10.4343C17.9127 10.072 18.1146 9.58062 18.1146 9.06827V6.6535C18.1146 6.14115 17.9127 5.64978 17.5533 5.2875C17.1938 4.92521 16.7063 4.72168 16.198 4.72168V4.72168ZM16.198 9.06827H13.8022V6.6535H16.198V9.06827Z" fill="#555454"/>
<path d="M24.4271 4.72168H22.0313C21.523 4.72168 21.0354 4.92521 20.676 5.2875C20.3166 5.64978 20.1146 6.14115 20.1146 6.6535V9.06827C20.1146 9.58062 20.3166 10.072 20.676 10.4343C21.0354 10.7966 21.523 11.0001 22.0313 11.0001H24.4271C24.9354 11.0001 25.4229 10.7966 25.7824 10.4343C26.1418 10.072 26.3438 9.58062 26.3438 9.06827V6.6535C26.3438 6.14115 26.1418 5.64978 25.7824 5.2875C25.4229 4.92521 24.9354 4.72168 24.4271 4.72168V4.72168ZM24.4271 9.06827H22.0313V6.6535H24.4271V9.06827Z" fill="#555454"/>
<path d="M7.96874 13H5.57291C5.06458 13 4.57707 13.2035 4.21763 13.5658C3.85818 13.9281 3.65625 14.4195 3.65625 14.9318L3.65625 17.3466C3.65625 17.8589 3.85818 18.3503 4.21763 18.7126C4.57707 19.0749 5.06458 19.2784 5.57291 19.2784H7.96874C8.47707 19.2784 8.96458 19.0749 9.32402 18.7126C9.68346 18.3503 9.8854 17.8589 9.8854 17.3466V14.9318C9.8854 14.4195 9.68346 13.9281 9.32402 13.5658C8.96458 13.2035 8.47707 13 7.96874 13ZM7.96874 17.3466H5.57291V14.9318H7.96874V17.3466Z" fill="#555454"/>
<path d="M16.198 13H13.8022C13.2938 13 12.8063 13.2035 12.4469 13.5658C12.0874 13.9281 11.8855 14.4195 11.8855 14.9318V17.3466C11.8855 17.8589 12.0874 18.3503 12.4469 18.7126C12.8063 19.0749 13.2938 19.2784 13.8022 19.2784H16.198C16.7063 19.2784 17.1938 19.0749 17.5533 18.7126C17.9127 18.3503 18.1146 17.8589 18.1146 17.3466V14.9318C18.1146 14.4195 17.9127 13.9281 17.5533 13.5658C17.1938 13.2035 16.7063 13 16.198 13ZM16.198 17.3466H13.8022V14.9318H16.198V17.3466Z" fill="#555454"/>
<path d="M24.4271 13H22.0313C21.523 13 21.0354 13.2035 20.676 13.5658C20.3166 13.9281 20.1146 14.4195 20.1146 14.9318V17.3466C20.1146 17.8589 20.3166 18.3503 20.676 18.7126C21.0354 19.0749 21.523 19.2784 22.0313 19.2784H24.4271C24.9354 19.2784 25.4229 19.0749 25.7824 18.7126C26.1418 18.3503 26.3438 17.8589 26.3438 17.3466V14.9318C26.3438 14.4195 26.1418 13.9281 25.7824 13.5658C25.4229 13.2035 24.9354 13 24.4271 13ZM24.4271 17.3466H22.0313V14.9318H24.4271V17.3466Z" fill="#555454"/>
</svg>
