<svg width="24" height="23" viewBox="0 0 24 23" fill="none" xmlns="http://www.w3.org/2000/svg">
<path id="account_circle" d="M4.74519 18.4195C5.80769 17.6474 6.93509 17.0367 8.12741 16.5875C9.31972 16.1383 10.6106 15.9137 12 15.9137C13.3894 15.9137 14.6803 16.1383 15.8726 16.5875C17.0649 17.0367 18.1923 17.6474 19.2548 18.4195C20.0801 17.5567 20.744 16.5377 21.2464 15.3625C21.7488 14.1873 22 12.8979 22 11.4945C22 8.69567 21.026 6.31247 19.0781 4.34487C17.1302 2.37728 14.7708 1.39349 12 1.39349C9.22917 1.39349 6.86979 2.37728 4.92188 4.34487C2.97396 6.31247 2 8.69567 2 11.4945C2 12.8979 2.2512 14.1873 2.75359 15.3625C3.25601 16.5377 3.91987 17.5567 4.74519 18.4195ZM12.0007 12.1258C10.9473 12.1258 10.0589 11.7606 9.33534 11.0303C8.61178 10.2999 8.25 9.40267 8.25 8.33866C8.25 7.27464 8.61153 6.37721 9.33459 5.64636C10.0577 4.91549 10.9459 4.55005 11.9993 4.55005C13.0527 4.55005 13.9411 4.91524 14.6647 5.64563C15.3882 6.376 15.75 7.27319 15.75 8.3372C15.75 9.40122 15.3885 10.2987 14.6654 11.0295C13.9423 11.7604 13.0541 12.1258 12.0007 12.1258ZM12 22.8581C10.4311 22.8581 8.96233 22.5631 7.59375 21.9731C6.22517 21.383 5.03446 20.5765 4.02163 19.5535C3.00881 18.5304 2.21033 17.3277 1.62619 15.9453C1.04206 14.5628 0.75 13.0793 0.75 11.4945C0.75 9.90973 1.04206 8.42614 1.62619 7.04374C2.21033 5.66133 3.00881 4.4586 4.02163 3.43553C5.03446 2.41249 6.22517 1.60594 7.59375 1.0159C8.96233 0.425873 10.4311 0.130859 12 0.130859C13.5689 0.130859 15.0377 0.425873 16.4063 1.0159C17.7748 1.60594 18.9655 2.41249 19.9784 3.43553C20.9912 4.4586 21.7897 5.66133 22.3738 7.04374C22.9579 8.42614 23.25 9.90973 23.25 11.4945C23.25 13.0793 22.9579 14.5628 22.3738 15.9453C21.7897 17.3277 20.9912 18.5304 19.9784 19.5535C18.9655 20.5765 17.7748 21.383 16.4063 21.9731C15.0377 22.5631 13.5689 22.8581 12 22.8581ZM12 21.5955C13.1523 21.5955 14.2861 21.3919 15.4014 20.9848C16.5168 20.5777 17.4808 20.0205 18.2933 19.3131C17.4808 18.6542 16.5409 18.1334 15.4736 17.7506C14.4062 17.3677 13.2484 17.1763 12 17.1763C10.7516 17.1763 9.58975 17.3637 8.51444 17.7384C7.4391 18.1132 6.5032 18.638 5.70672 19.3131C6.51922 20.0205 7.48317 20.5777 8.59856 20.9848C9.71394 21.3919 10.8477 21.5955 12 21.5955ZM12 10.8632C12.7019 10.8632 13.2941 10.6196 13.7764 10.1323C14.2588 9.64506 14.5 9.04694 14.5 8.33793C14.5 7.62892 14.2588 7.0308 13.7764 6.54355C13.2941 6.0563 12.7019 5.81268 12 5.81268C11.2981 5.81268 10.7059 6.0563 10.2236 6.54355C9.74119 7.0308 9.5 7.62892 9.5 8.33793C9.5 9.04694 9.74119 9.64506 10.2236 10.1323C10.7059 10.6196 11.2981 10.8632 12 10.8632Z" fill="#2B2B2B"/>
</svg>
