<svg width="37" height="26" viewBox="0 0 37 26" fill="none" xmlns="http://www.w3.org/2000/svg">
<g id="arrow-long-down">
<path id="vector (Stroke)" fill-rule="evenodd" clip-rule="evenodd" d="M18 25.5C18.4724 25.5 18.9255 25.3123 19.2595 24.9783C19.2595 24.9783 34.6598 9.34022 35.5 8.5C36.3402 7.65978 36 7 35.5 6.5C35.3158 6.31575 34.5 6 33.5 7L19.5 21L19.5 2C19.5 2 19.579 0.49998 18 0.49998C16.421 0.49998 16.5 2 16.5 2L16.5 21L2.76277 6.67794C2.06715 5.98232 1.00001 6 0.521695 6.67794C-0.0454327 7.48178 0.804332 8.30438 1.49995 9L16.7404 24.9783C17.0745 25.3123 17.5276 25.5 18 25.5Z" fill="#2B2B2B"/>
</g>
</svg>
