<svg width="234" height="234" viewBox="0 0 234 234" fill="none" xmlns="http://www.w3.org/2000/svg">
<g clip-path="url(#clip0_1568_4106)">
<rect width="234" height="234" rx="117" fill="#ADC3D4"/>
<circle cx="117" cy="108" r="38" fill="#FBF5F3"/>
<path d="M192 235.5C192 215.741 184.151 196.792 170.179 182.821C156.208 168.849 137.259 165 117.5 165C97.7414 165 78.792 168.849 64.8206 182.821C50.8491 196.792 43 215.741 43 235.5L117.5 235.5H192Z" fill="#485665"/>
<path d="M118.5 249.5L88.5 166.5L96.5 164L102.5 162.5L109.5 165L118.5 161L122.5 161L125.5 165L133 162.5L140.5 164.5L146.5 168L118.5 249.5Z" fill="#FBF5F3"/>
<path d="M110.658 169.094C111.714 168.294 111.714 166.706 110.658 165.906L91.3985 151.311C90.0813 150.313 88.1905 151.253 88.1905 152.905L88.1905 182.095C88.1905 183.747 90.0812 184.687 91.3984 183.689L110.658 169.094Z" fill="#F28F3B"/>
<circle cx="117.58" cy="166.476" r="8.19048" fill="#F28F3B"/>
<path d="M124.501 169.094C123.445 168.294 123.445 166.706 124.501 165.906L143.761 151.311C145.078 150.313 146.969 151.253 146.969 152.905L146.969 182.095C146.969 183.747 145.078 184.687 143.761 183.689L124.501 169.094Z" fill="#F28F3B"/>
</g>
<defs>
<clipPath id="clip0_1568_4106">
<rect width="234" height="234" rx="117" fill="white"/>
</clipPath>
</defs>
</svg>
