<svg viewBox="0 0 346 196" xmlns="http://www.w3.org/2000/svg">
    <path fill-rule="evenodd" clip-rule="evenodd"
          d="M151.597 44.3909C152.354 43.9554 153.114 43.5214 153.876 43.0888C232.785 -1.69526 305.315 -13.4847 315.878 16.7562C319.898 28.2652 314.363 44.2031 301.614 62.0005C328.674 71.4538 345.108 83.9007 345.108 97.5385C345.108 124.681 280.01 147.106 195.613 150.603C194.456 151.273 193.294 151.939 192.126 152.601C113.218 197.385 40.6873 209.175 30.1249 178.934C26.0868 167.372 31.6905 151.342 44.5631 133.446C16.868 123.949 0 111.355 0 97.5385C0 70.1711 66.1816 47.5997 151.597 44.3909ZM315.008 17.2498C317.513 24.4199 316.155 33.5325 311.284 44.0337C308.699 49.6055 305.144 55.5261 300.708 61.6864C269.127 50.8261 223.41 44.0001 172.554 44.0001C166.186 44.0001 159.898 44.1071 153.709 44.3157C153.874 44.2214 154.04 44.1271 154.206 44.0329C193.589 21.6816 231.343 7.58667 260.528 2.84267C275.126 0.469946 287.527 0.445266 296.901 2.8561C306.283 5.26856 312.504 10.0798 315.008 17.2498ZM45.1767 132.599C32.2254 128.18 21.6887 123.101 14.1516 117.572C5.52407 111.243 1 104.461 1 97.5385C1 90.6159 5.52407 83.8341 14.1516 77.5052C22.7586 71.1915 35.2772 65.4637 50.8363 60.6362C76.8846 52.5542 111.297 47.0433 149.738 45.4648C103.357 72.3972 65.5354 104.7 45.1767 132.599ZM46.0906 132.909C49.8326 127.808 54.1692 122.548 59.0496 117.191C80.8972 93.2082 113.485 67.4396 151.844 45.3824C158.633 45.13 165.544 45.0001 172.554 45.0001C220.132 45.0001 263.166 50.9849 294.272 60.6362C296.263 61.2539 298.204 61.8864 300.094 62.533C296.311 67.7116 291.913 73.055 286.953 78.4991C265.335 102.23 233.2 127.71 195.363 149.613C187.902 149.919 180.288 150.077 172.554 150.077C124.977 150.077 81.9425 144.092 50.8363 134.441C49.2213 133.94 47.6391 133.429 46.0906 132.909ZM45.4734 133.756C40.9543 140.005 37.338 146.01 34.719 151.656C29.8481 162.157 28.4903 171.27 30.9946 178.44C33.4989 185.61 39.72 190.421 49.1013 192.834C58.4762 195.245 70.8771 195.22 85.4744 192.847C114.66 188.103 152.414 174.008 191.797 151.657C192.365 151.334 192.932 151.011 193.498 150.687C186.633 150.944 179.644 151.077 172.554 151.077C122.271 151.077 77.012 144.404 45.4734 133.756ZM197.472 149.522C235.065 147.832 268.699 142.375 294.272 134.441C309.831 129.613 322.35 123.886 330.957 117.572C339.584 111.243 344.108 104.461 344.108 97.5385C344.108 90.6159 339.584 83.8341 330.957 77.5052C323.629 72.1297 313.465 67.1788 301.004 62.8467C280.864 90.5592 243.436 122.653 197.472 149.522Z" />
</svg>
