<svg width="40" height="40" viewBox="0 0 40 40" fill="none" xmlns="http://www.w3.org/2000/svg">
    <path d="M1.66667 10.0001H38.3333C38.7754 10.0001 39.1993 9.82448 39.5118 9.51192C39.8244 9.19936 40 8.77544 40 8.33341C40 7.89138 39.8244 7.46746 39.5118 7.1549C39.1993 6.84234 38.7754 6.66675 38.3333 6.66675H1.66667C1.22464 6.66675 0.800716 6.84234 0.488155 7.1549C0.175595 7.46746 0 7.89138 0 8.33341C0 8.77544 0.175595 9.19936 0.488155 9.51192C0.800716 9.82448 1.22464 10.0001 1.66667 10.0001Z"
          fill="#555454"/>
    <path d="M38.3333 15.0001H1.66667C1.22464 15.0001 0.800716 15.1757 0.488155 15.4882C0.175595 15.8008 0 16.2247 0 16.6667C0 17.1087 0.175595 17.5327 0.488155 17.8452C0.800716 18.1578 1.22464 18.3334 1.66667 18.3334H38.3333C38.7754 18.3334 39.1993 18.1578 39.5118 17.8452C39.8244 17.5327 40 17.1087 40 16.6667C40 16.2247 39.8244 15.8008 39.5118 15.4882C39.1993 15.1757 38.7754 15.0001 38.3333 15.0001Z"
          fill="#555454"/>
    <path d="M38.3333 31.6667H1.66667C1.22464 31.6667 0.800716 31.8423 0.488155 32.1548C0.175595 32.4674 0 32.8913 0 33.3334C0 33.7754 0.175595 34.1993 0.488155 34.5119C0.800716 34.8244 1.22464 35 1.66667 35H38.3333C38.7754 35 39.1993 34.8244 39.5118 34.5119C39.8244 34.1993 40 33.7754 40 33.3334C40 32.8913 39.8244 32.4674 39.5118 32.1548C39.1993 31.8423 38.7754 31.6667 38.3333 31.6667Z"
          fill="#555454"/>
    <path d="M38.3333 23.3334H1.66667C1.22464 23.3334 0.800716 23.509 0.488155 23.8216C0.175595 24.1342 0 24.5581 0 25.0001C0 25.4421 0.175595 25.8661 0.488155 26.1786C0.800716 26.4912 1.22464 26.6668 1.66667 26.6668H38.3333C38.7754 26.6668 39.1993 26.4912 39.5118 26.1786C39.8244 25.8661 40 25.4421 40 25.0001C40 24.5581 39.8244 24.1342 39.5118 23.8216C39.1993 23.509 38.7754 23.3334 38.3333 23.3334Z"
          fill="#555454"/>
</svg>
