<svg width="18" height="18" viewBox="0 0 18 18" fill="none" xmlns="http://www.w3.org/2000/svg">
<rect width="18" height="18" rx="1" fill="#555454"/>
<path d="M14.8535 3.14639C14.7598 3.05266 14.6326 3 14.5 3C14.3674 3 14.2403 3.05266 14.1465 3.14639L9.00002 8.29289L3.85352 3.14639C3.75975 3.05266 3.6326 3 3.50002 3C3.36743 3 3.24028 3.05266 3.14652 3.14639C3.05278 3.24016 3.00012 3.36731 3.00012 3.49989C3.00012 3.63248 3.05278 3.75963 3.14652 3.85339L8.29302 8.99989L3.14652 14.1464C3.05278 14.2402 3.00012 14.3673 3.00012 14.4999C3.00012 14.6325 3.05278 14.7596 3.14652 14.8534C3.24028 14.9471 3.36743 14.9998 3.50002 14.9998C3.6326 14.9998 3.75975 14.9471 3.85352 14.8534L9.00002 9.70689L14.1465 14.8534C14.2403 14.9471 14.3674 14.9998 14.5 14.9998C14.6326 14.9998 14.7598 14.9471 14.8535 14.8534C14.9473 14.7596 14.9999 14.6325 14.9999 14.4999C14.9999 14.3673 14.9473 14.2402 14.8535 14.1464L9.70702 8.99989L14.8535 3.85339C14.9473 3.75963 14.9999 3.63248 14.9999 3.49989C14.9999 3.36731 14.9473 3.24016 14.8535 3.14639Z" fill="white"/>
</svg>
