<svg width="37" height="37" viewBox="0 0 37 37" fill="none" xmlns="http://www.w3.org/2000/svg">
<circle cx="18.5" cy="18.5" r="18.125" fill="white" fill-opacity="0.6" stroke="#2B2B2B" stroke-width="0.75"/>
<path d="M11.4804 20.1939L17.9529 26.2133C18.1471 26.3939 18.2442 26.4842 18.3548 26.5178C18.4495 26.5465 18.5506 26.5465 18.6452 26.5178C18.7559 26.4842 18.853 26.3939 19.0471 26.2134L19.0471 26.2133L25.5197 20.1939C27.3619 18.4806 27.5851 15.6419 26.0333 13.6618L25.7696 13.3253C23.9255 10.9723 20.2529 11.3696 18.9547 14.0625C18.7711 14.4432 18.2289 14.4432 18.0454 14.0625C16.7472 11.3696 13.0745 10.9723 11.2305 13.3253L10.9668 13.6618C9.41497 15.6419 9.63817 18.4806 11.4804 20.1939Z" stroke="#2B2B2B" stroke-width="0.75"/>
</svg>
