<svg viewBox="0 0 15 15" xmlns="http://www.w3.org/2000/svg">
<path d="M1.98283 6H13.0172C13.2124 6.00077 13.4029 6.05563 13.5648 6.15765C13.7266 6.25968 13.8525 6.40428 13.9264 6.57318C14.0004 6.74208 14.0191 6.92769 13.9802 7.10653C13.9414 7.28538 13.8466 7.44943 13.708 7.57795L8.20075 12.727C8.109 12.8135 7.99984 12.8822 7.87957 12.929C7.75929 12.9759 7.63029 13 7.5 13C7.36971 13 7.24071 12.9759 7.12043 12.929C7.00016 12.8822 6.891 12.8135 6.79925 12.727L1.29195 7.57795C1.15336 7.44943 1.05864 7.28538 1.01977 7.10653C0.980897 6.92769 0.999619 6.74208 1.07357 6.57318C1.14752 6.40428 1.27337 6.25968 1.43522 6.15765C1.59707 6.05563 1.78764 6.00077 1.98283 6Z" />
</svg>
