<svg width="9" height="9" viewBox="0 0 9 9" fill="none" xmlns="http://www.w3.org/2000/svg">
<path d="M8.24989 0.750008C8.13268 0.632839 7.97374 0.567017 7.80801 0.567017C7.64228 0.567017 7.48334 0.632839 7.36614 0.750008L4.49989 3.61626L1.63364 0.750008C1.51643 0.632839 1.35749 0.567017 1.19176 0.567017C1.02603 0.567017 0.867091 0.632839 0.749886 0.750008C0.632717 0.867213 0.566895 1.02616 0.566895 1.19188C0.566895 1.35761 0.632717 1.51655 0.749886 1.63376L3.61614 4.50001L0.749886 7.36626C0.632717 7.48346 0.566895 7.64241 0.566895 7.80813C0.566895 7.97386 0.632717 8.1328 0.749886 8.25001C0.867091 8.36718 1.02603 8.433 1.19176 8.433C1.35749 8.433 1.51643 8.36718 1.63364 8.25001L4.49989 5.38376L7.36614 8.25001C7.48334 8.36718 7.64228 8.433 7.80801 8.433C7.97374 8.433 8.13268 8.36718 8.24989 8.25001C8.36706 8.1328 8.43288 7.97386 8.43288 7.80813C8.43288 7.64241 8.36706 7.48346 8.24989 7.36626L5.38364 4.50001L8.24989 1.63376C8.36706 1.51655 8.43288 1.35761 8.43288 1.19188C8.43288 1.02616 8.36706 0.867213 8.24989 0.750008V0.750008Z" fill="#555454"/>
</svg>
