<svg width="234" height="234" viewBox="0 0 234 234" fill="none" xmlns="http://www.w3.org/2000/svg">
<g clip-path="url(#clip0_1568_4103)">
<rect width="234" height="234" rx="117" fill="#F3D3E3"/>
<path d="M115.276 69.9348C116.049 68.619 117.951 68.619 118.724 69.9348L214.822 233.487C215.606 234.82 214.644 236.5 213.098 236.5L20.9019 236.5C19.3555 236.5 18.3941 234.82 19.1775 233.487L115.276 69.9348Z" fill="#ECA8CA"/>
<circle cx="117" cy="106" r="38" fill="#FBF5F3"/>
<path d="M192 235.5C192 215.741 184.151 196.792 170.179 182.821C156.208 168.849 137.259 161 117.5 161C97.7414 161 78.792 168.849 64.8206 182.821C50.8491 196.792 43 215.741 43 235.5L117.5 235.5H192Z" fill="#FBF5F3"/>
<circle cx="84" cy="128" r="5" fill="#BF5A78"/>
<circle cx="150" cy="128" r="5" fill="#BF5A78"/>
<path d="M192 237C192 215.98 184.151 195.821 170.179 180.958C156.208 166.095 137.259 162 117.5 162C97.7414 162 78.792 166.095 64.8206 180.958C50.8491 195.821 43 215.98 43 237L117.5 237H192Z" fill="#BF5A78"/>
<path d="M118.5 249.5L88 166L95 164L102.5 162.5L108.5 161.5L114.5 161L122.5 161L127.5 161.5L133 162.5L143.5 165L148 166.5L118.5 249.5Z" fill="#FBF5F3"/>
<path fill-rule="evenodd" clip-rule="evenodd" d="M115.899 68.0685C116.503 70.5211 116.789 73.1542 116.713 75.9281C116.248 92.7865 102.575 108.46 86.1729 110.935C83.8912 111.279 81.6768 111.35 79.5566 111.171C78.9524 108.719 78.6665 106.086 78.743 103.312C79.2077 86.4533 92.8808 70.7802 109.283 68.3049C111.565 67.9606 113.779 67.8898 115.899 68.0685Z" fill="#F28F3B"/>
<path fill-rule="evenodd" clip-rule="evenodd" d="M115.636 67.877C115.145 70.2659 114.963 72.8317 115.129 75.5408C116.191 92.8663 131.093 109.492 148.412 112.675C151.032 113.157 153.558 113.303 155.953 113.144C156.467 110.685 156.659 108.036 156.487 105.237C155.425 87.9111 140.842 71.344 123.915 68.2331C121.02 67.701 118.244 67.5971 115.636 67.877Z" fill="#F28F3B"/>
</g>
<defs>
<clipPath id="clip0_1568_4103">
<rect width="234" height="234" rx="117" fill="white"/>
</clipPath>
</defs>
</svg>
