<svg width="40" height="40" viewBox="0 0 40 40" fill="none" xmlns="http://www.w3.org/2000/svg">
<circle cx="20" cy="20" r="19.5" stroke="#555454"/>
<path d="M24.5548 7H24.3901C23.1584 7.16014 21.8725 7.87989 21.1708 8.68855C20.4147 9.55647 19.7906 10.6686 19.9003 12.2531C21.5461 12.3802 22.5634 11.5425 23.3065 10.6786C24.0637 9.80864 24.687 8.60763 24.5548 7Z" fill="#555454"/>
<path d="M29.3718 23.5462V23.5015C27.7618 22.7486 26.4728 21.4715 26.294 19.2883C26.0929 16.8852 27.2708 15.4779 28.761 14.5438C27.9884 13.3545 26.7381 12.5837 24.9765 12.3216C23.6232 12.1208 22.5711 12.4998 21.5247 12.8768C21.438 12.908 21.3513 12.9392 21.2645 12.9701C21.1703 13.0039 21.0764 13.0412 20.9827 13.0784C20.6912 13.1941 20.4016 13.309 20.1108 13.3175C19.6665 13.3306 19.2027 13.1363 18.7924 12.9644C18.6791 12.9169 18.5698 12.8711 18.4661 12.8319C17.9612 12.6439 17.3848 12.4535 16.8206 12.3675C15.504 12.1691 14.322 12.6125 13.4621 13.1331C11.8325 14.1121 10.6068 16.1321 10.5 18.6165V19.6365C10.752 23.108 12.1071 25.8206 13.8602 27.9206C14.4549 28.6312 15.2711 29.4199 16.2824 29.5641H16.752C17.3406 29.4824 17.829 29.2969 18.3128 29.113C18.9612 28.8667 19.6015 28.6235 20.4641 28.6372C21.1726 28.6491 21.7571 28.8728 22.3366 29.0947C22.9221 29.3188 23.5026 29.541 24.2008 29.541C25.7301 29.541 26.6194 28.329 27.335 27.3537C27.3719 27.3033 27.4084 27.2537 27.4444 27.2048C28.2497 26.1078 28.9094 24.9256 29.3718 23.5462Z" fill="#555454"/>
</svg>
