<svg width="40" height="40" viewBox="0 0 40 40" fill="none" xmlns="http://www.w3.org/2000/svg">
<path d="M20 0.5C30.7696 0.5 39.5 9.23045 39.5 20C39.5 30.7696 30.7696 39.5 20 39.5C9.23045 39.5 0.5 30.7696 0.5 20C0.5 9.23045 9.23045 0.5 20 0.5Z" stroke="#555454"/>
<path fill-rule="evenodd" clip-rule="evenodd" d="M29.7875 20.2271C29.7875 19.518 29.7239 18.8362 29.6057 18.1816H20.1875V22.0498H25.5693C25.3375 23.2998 24.633 24.3589 23.5739 25.068V27.5771H26.8057C28.6966 25.8362 29.7875 23.2726 29.7875 20.2271Z" fill="#555454"/>
<path fill-rule="evenodd" clip-rule="evenodd" d="M20.1871 30.0004C22.8871 30.0004 25.1508 29.105 26.8053 27.5777L23.5735 25.0686C22.678 25.6686 21.5326 26.0231 20.1871 26.0231C17.5826 26.0231 15.378 24.264 14.5916 21.9004H11.2507V24.4913C12.8962 27.7595 16.278 30.0004 20.1871 30.0004Z" fill="#555454"/>
<path fill-rule="evenodd" clip-rule="evenodd" d="M14.5921 21.8997C14.3921 21.2997 14.2784 20.6588 14.2784 19.9997C14.2784 19.3406 14.3921 18.6997 14.5921 18.0997V15.5088H11.2511C10.5739 16.8588 10.1875 18.3861 10.1875 19.9997C10.1875 21.6133 10.5739 23.1406 11.2511 24.4906L14.5921 21.8997Z" fill="#555454"/>
<path fill-rule="evenodd" clip-rule="evenodd" d="M20.1871 13.9773C21.6553 13.9773 22.9735 14.4818 24.0099 15.4727L26.878 12.6046C25.1462 10.9909 22.8826 10 20.1871 10C16.278 10 12.8962 12.2409 11.2507 15.5091L14.5916 18.1C15.378 15.7364 17.5826 13.9773 20.1871 13.9773Z" fill="#555454"/>
</svg>
