<svg viewBox="0 0 13 12" xmlns="http://www.w3.org/2000/svg">
    <path id="Vector"
          d="M12.3538 0.146882C12.26 0.053146 12.1328 0.000488281 12.0003 0.000488281C11.8677 0.000488281 11.7405 0.053146 11.6468 0.146882L6.50025 5.29338L1.35375 0.146882C1.25999 0.053146 1.13283 0.000488281 1.00025 0.000488281C0.86767 0.000488281 0.740516 0.053146 0.646752 0.146882C0.553016 0.240645 0.500359 0.367799 0.500359 0.500381C0.500359 0.632964 0.553016 0.760118 0.646752 0.853882L5.79325 6.00038L0.646752 11.1469C0.553016 11.2406 0.500359 11.3678 0.500359 11.5004C0.500359 11.633 0.553016 11.7601 0.646752 11.8539C0.740516 11.9476 0.86767 12.0003 1.00025 12.0003C1.13283 12.0003 1.25999 11.9476 1.35375 11.8539L6.50025 6.70738L11.6468 11.8539C11.7405 11.9476 11.8677 12.0003 12.0003 12.0003C12.1328 12.0003 12.26 11.9476 12.3538 11.8539C12.4475 11.7601 12.5001 11.633 12.5001 11.5004C12.5001 11.3678 12.4475 11.2406 12.3538 11.1469L7.20725 6.00038L12.3538 0.853882C12.4475 0.760118 12.5001 0.632964 12.5001 0.500381C12.5001 0.367799 12.4475 0.240645 12.3538 0.146882Z" />
</svg>
