<svg width="13" height="13" viewBox="0 0 13 13" fill="none" xmlns="http://www.w3.org/2000/svg">
<path d="M2.63077 10.1564C3.19743 9.74872 3.79872 9.42628 4.43462 9.1891C5.07052 8.95192 5.75898 8.83333 6.5 8.83333C7.24102 8.83333 7.92948 8.95192 8.56538 9.1891C9.20128 9.42628 9.80257 9.74872 10.3692 10.1564C10.8094 9.70086 11.1635 9.16282 11.4314 8.5423C11.6994 7.92179 11.8333 7.24102 11.8333 6.5C11.8333 5.02222 11.3139 3.76389 10.275 2.725C9.23611 1.68611 7.97778 1.16667 6.5 1.16667C5.02222 1.16667 3.76389 1.68611 2.725 2.725C1.68611 3.76389 1.16667 5.02222 1.16667 6.5C1.16667 7.24102 1.30064 7.92179 1.56858 8.5423C1.83654 9.16282 2.1906 9.70086 2.63077 10.1564ZM6.50038 6.83333C5.93858 6.83333 5.46474 6.64052 5.07885 6.25488C4.69295 5.86924 4.5 5.39552 4.5 4.83372C4.5 4.27192 4.69282 3.79807 5.07845 3.41218C5.46409 3.02628 5.93782 2.83333 6.49962 2.83333C7.06142 2.83333 7.53526 3.02616 7.92115 3.4118C8.30705 3.79743 8.5 4.27115 8.5 4.83295C8.5 5.39475 8.30718 5.86859 7.92153 6.25448C7.5359 6.64038 7.06218 6.83333 6.50038 6.83333ZM6.5 12.5C5.66324 12.5 4.87991 12.3442 4.15 12.0327C3.42009 11.7212 2.78504 11.2953 2.24487 10.7551C1.7047 10.215 1.27884 9.57991 0.9673 8.85C0.655767 8.12009 0.5 7.33676 0.5 6.5C0.5 5.66324 0.655767 4.87991 0.9673 4.15C1.27884 3.42009 1.7047 2.78504 2.24487 2.24487C2.78504 1.7047 3.42009 1.27884 4.15 0.9673C4.87991 0.655767 5.66324 0.5 6.5 0.5C7.33676 0.5 8.12009 0.655767 8.85 0.9673C9.57991 1.27884 10.215 1.7047 10.7551 2.24487C11.2953 2.78504 11.7212 3.42009 12.0327 4.15C12.3442 4.87991 12.5 5.66324 12.5 6.5C12.5 7.33676 12.3442 8.12009 12.0327 8.85C11.7212 9.57991 11.2953 10.215 10.7551 10.7551C10.215 11.2953 9.57991 11.7212 8.85 12.0327C8.12009 12.3442 7.33676 12.5 6.5 12.5ZM6.5 11.8333C7.11453 11.8333 7.71923 11.7259 8.3141 11.5109C8.90898 11.2959 9.42308 11.0017 9.85642 10.6282C9.42308 10.2803 8.9218 10.0053 8.35257 9.8032C7.78333 9.60107 7.16581 9.5 6.5 9.5C5.83419 9.5 5.21453 9.59893 4.64103 9.7968C4.06752 9.99465 3.56837 10.2718 3.14358 10.6282C3.57692 11.0017 4.09102 11.2959 4.6859 11.5109C5.28077 11.7259 5.88547 11.8333 6.5 11.8333ZM6.5 6.16667C6.87436 6.16667 7.19017 6.03803 7.44743 5.78077C7.7047 5.5235 7.83333 5.20769 7.83333 4.83333C7.83333 4.45898 7.7047 4.14317 7.44743 3.8859C7.19017 3.62863 6.87436 3.5 6.5 3.5C6.12564 3.5 5.80983 3.62863 5.55257 3.8859C5.2953 4.14317 5.16667 4.45898 5.16667 4.83333C5.16667 5.20769 5.2953 5.5235 5.55257 5.78077C5.80983 6.03803 6.12564 6.16667 6.5 6.16667Z" fill="#2B2B2B"/>
</svg>
