<svg width="14" height="13" viewBox="0 0 14 13" fill="none" xmlns="http://www.w3.org/2000/svg">
<g id="elements">
<path id="Rectangle 2176" d="M6.06323 12.625C3.61748 12.625 2.3946 12.625 1.6348 11.9074C0.875 11.1898 0.875 10.0349 0.875 7.725L0.875 5.275C0.875 2.96512 0.875 1.81018 1.6348 1.09259C2.3946 0.375 3.61748 0.375 6.06324 0.375L6.71177 0.375C9.15752 0.375 10.3804 0.375 11.1402 1.09259C11.9 1.81018 11.9 2.96512 11.9 5.275" stroke="#2B2B2B" stroke-width="0.75" stroke-linecap="round"/>
<path id="Vector 4435" d="M3.9375 3.4375H8.8375" stroke="#2B2B2B" stroke-width="0.75" stroke-linecap="round"/>
<path id="Vector 4436" d="M3.9375 6.5H7.6125" stroke="#2B2B2B" stroke-width="0.75" stroke-linecap="round"/>
<path id="Vector" d="M8.22498 12.6248C9.35103 10.9415 11.9727 10.8497 13.125 12.6248M11.9 8.29362C11.9 8.94605 11.3515 9.47494 10.675 9.47494C9.99843 9.47494 9.44998 8.94605 9.44998 8.29362C9.44998 7.6412 9.99843 7.1123 10.675 7.1123C11.3515 7.1123 11.9 7.6412 11.9 8.29362Z" stroke="#2B2B2B" stroke-width="0.75" stroke-linecap="round"/>
</g>
</svg>
