<svg width="21" height="26" viewBox="0 0 21 26" fill="none" xmlns="http://www.w3.org/2000/svg">
<path d="M14.7961 1.64171L14.6073 2.21122L14.6073 2.21122L14.7961 1.64171ZM14.7168 1.61539L14.9056 1.04588L14.9056 1.04588L14.7168 1.61539ZM1.14247 2.87176L0.57357 2.6811L0.57357 2.6811L1.14247 2.87176ZM1.11602 2.95069L1.68492 3.14135L1.68492 3.14135L1.11602 2.95069ZM1.21412 23.4884L1.7502 23.219L1.7502 23.219L1.21412 23.4884ZM1.23267 23.5253L0.696589 23.7948L0.69659 23.7948L1.23267 23.5253ZM15.9912 23.0763L15.4093 22.93L15.4093 22.93L15.9912 23.0763ZM16.088 22.6909L16.6699 22.8372L16.6699 22.8372L16.088 22.6909ZM15.2061 24.1843L15.5377 24.6844L15.5377 24.6844L15.2061 24.1843ZM1.56473 23.9836L1.98785 23.5582L1.98785 23.5582L1.56473 23.9836ZM1.93714 1.83693L1.60556 1.33688L1.60556 1.33688L1.93714 1.83693ZM15.8366 2.4321L16.335 2.09804L16.335 2.09804L15.8366 2.4321ZM19.4272 13.9593C19.7585 13.9593 20.0272 13.6907 20.0272 13.3593C20.0272 13.0279 19.7585 12.7593 19.4272 12.7593V13.9593ZM8.58765 12.7593C8.25628 12.7593 7.98765 13.0279 7.98765 13.3593C7.98765 13.6907 8.25628 13.9593 8.58765 13.9593V12.7593ZM16.9596 9.34022C16.7247 9.10654 16.3448 9.10756 16.1111 9.34251C15.8774 9.57745 15.8784 9.95735 16.1134 10.191L16.9596 9.34022ZM19.6387 12.8511L20.0618 12.4257L20.0618 12.4257L19.6387 12.8511ZM19.6387 13.8676L20.0618 14.293L20.0618 14.293L19.6387 13.8676ZM16.1134 16.5277C15.8784 16.7614 15.8774 17.1413 16.1111 17.3762C16.3448 17.6112 16.7247 17.6122 16.9596 17.3785L16.1134 16.5277ZM16.7753 4.73438V3.54492H15.5753V4.73438H16.7753ZM14.985 1.07219L14.9056 1.04588L14.528 2.18491L14.6073 2.21122L14.985 1.07219ZM0.57357 2.6811L0.547116 2.76003L1.68492 3.14135L1.71137 3.06241L0.57357 2.6811ZM0.4 3.66178V22.5863H1.6V3.66178H0.4ZM0.678047 23.7579L0.696589 23.7948L1.76874 23.2558L1.7502 23.219L0.678047 23.7579ZM2.81824 25.1H14.1579V23.9H2.81824V25.1ZM16.5731 23.2226L16.6699 22.8372L15.5061 22.5447L15.4093 22.93L16.5731 23.2226ZM16.7753 21.9859V21.2656H15.5753V21.9859H16.7753ZM16.6699 22.8372C16.7399 22.5588 16.7753 22.2729 16.7753 21.9859H15.5753C15.5753 22.1742 15.5521 22.3619 15.5061 22.5447L16.6699 22.8372ZM14.1579 25.1C14.6487 25.1 15.1288 24.9555 15.5377 24.6844L14.8745 23.6843C14.6626 23.8248 14.4132 23.9 14.1579 23.9V25.1ZM1.14161 24.409C1.58683 24.8518 2.18999 25.1 2.81824 25.1V23.9C2.50617 23.9 2.20753 23.7767 1.98785 23.5582L1.14161 24.409ZM0.69659 23.7948C0.810861 24.0221 0.961159 24.2295 1.14161 24.409L1.98785 23.5582C1.89885 23.4696 1.82489 23.3675 1.76874 23.2558L0.69659 23.7948ZM0.4 22.5863C0.4 22.9931 0.495248 23.3943 0.678048 23.7579L1.7502 23.219C1.65137 23.0224 1.6 22.8058 1.6 22.5863H0.4ZM0.547116 2.76003C0.449689 3.05074 0.4 3.35524 0.4 3.66178H1.6C1.6 3.48494 1.62866 3.30922 1.68492 3.14135L0.547116 2.76003ZM3.05597 0.9C2.54002 0.9 2.03536 1.05188 1.60556 1.33688L2.26871 2.33699C2.50157 2.18259 2.7755 2.1 3.05597 2.1V0.9ZM14.9056 1.04588C14.6141 0.949246 14.309 0.9 14.0018 0.9V2.1C14.1807 2.1 14.3584 2.12868 14.528 2.18491L14.9056 1.04588ZM16.335 2.09804C16.0117 1.61578 15.5365 1.25505 14.985 1.07219L14.6073 2.21122C14.9068 2.31051 15.1638 2.50603 15.3382 2.76616L16.335 2.09804ZM1.60556 1.33688C1.12139 1.65792 0.75801 2.13075 0.57357 2.6811L1.71137 3.06241C1.81061 2.76631 2.00647 2.51088 2.26871 2.33699L1.60556 1.33688ZM15.5377 24.6844C16.053 24.3427 16.4225 23.8217 16.5731 23.2226L15.4093 22.93C15.3318 23.2381 15.1415 23.5072 14.8745 23.6843L15.5377 24.6844ZM16.7753 3.54492C16.7753 3.02968 16.622 2.52623 16.335 2.09804L15.3382 2.76616C15.4929 2.99706 15.5753 3.26803 15.5753 3.54492H16.7753ZM19.4272 12.7593H8.58765V13.9593H19.4272V12.7593ZM16.1134 10.191L19.2156 13.2765L20.0618 12.4257L16.9596 9.34022L16.1134 10.191ZM19.2156 13.4422L16.1134 16.5277L16.9596 17.3785L20.0618 14.293L19.2156 13.4422ZM19.2156 13.2765C19.2774 13.338 19.3242 13.3846 19.363 13.4253C19.4021 13.4662 19.4227 13.4903 19.4336 13.5045C19.4443 13.5183 19.4353 13.5097 19.4241 13.4829C19.4108 13.4512 19.4 13.408 19.4 13.3594H20.6C20.6 13.1 20.4868 12.9058 20.3857 12.7741C20.2952 12.6561 20.1702 12.5335 20.0618 12.4257L19.2156 13.2765ZM20.0618 14.293C20.1702 14.1852 20.2952 14.0626 20.3857 13.9447C20.4868 13.813 20.6 13.6187 20.6 13.3594H19.4C19.4 13.3107 19.4108 13.2675 19.4241 13.2359C19.4353 13.2091 19.4443 13.2004 19.4336 13.2143C19.4227 13.2285 19.4021 13.2526 19.363 13.2935C19.3242 13.3341 19.2774 13.3807 19.2156 13.4422L20.0618 14.293ZM14.0018 0.9H3.05597V2.1H14.0018V0.9Z" fill="#242325"/>
</svg>
