<svg width="14" height="12" viewBox="0 0 14 12" fill="none" xmlns="http://www.w3.org/2000/svg">
<path id="Vector 15" d="M1.97099 6.49624L6.62819 10.667C6.66409 10.6992 6.68204 10.7152 6.69875 10.7279C6.87704 10.8624 7.12296 10.8624 7.30125 10.7279C7.31796 10.7152 7.33591 10.6992 7.37181 10.667L12.029 6.49624C13.4122 5.25754 13.5782 3.15073 12.4062 1.71063L12.2838 1.56014C10.9248 -0.10972 8.29532 0.179315 7.3315 2.10451C7.19482 2.37753 6.80518 2.37753 6.6685 2.10451C5.70468 0.179315 3.07525 -0.109723 1.71625 1.56014L1.59378 1.71062C0.421762 3.15073 0.587822 5.25754 1.97099 6.49624Z" stroke="#2B2B2B" stroke-width="0.75"/>
</svg>
