<svg width="13" height="11" viewBox="0 0 13 11" fill="none" xmlns="http://www.w3.org/2000/svg">
<g id="elements">
<path id="Vector" d="M3.625 2.66028H9.23125C10.4426 2.66028 11.0483 2.66028 11.4834 2.9474C11.6717 3.0717 11.8334 3.23143 11.9593 3.41745C12.25 3.84717 12.25 4.44536 12.25 5.64176C12.25 7.63575 12.25 8.63274 11.7655 9.34893C11.5557 9.65898 11.2862 9.92519 10.9723 10.1324C10.2471 10.6109 9.23766 10.6109 7.21875 10.6109H6.5C3.78942 10.6109 2.43414 10.6109 1.59207 9.77922C0.75 8.94755 0.75 7.60899 0.75 4.93188V3.19653C0.75 2.16495 0.75 1.64916 0.968682 1.26214C1.12457 0.986255 1.35505 0.758614 1.63439 0.604654C2.02625 0.388672 2.54848 0.388672 3.59296 0.388672C4.26211 0.388672 4.59669 0.388672 4.88957 0.497146C5.55828 0.744812 5.83403 1.34478 6.13577 1.94082L6.5 2.66028" stroke="#2B2B2B" stroke-width="0.75" stroke-linecap="round"/>
</g>
</svg>
