<svg viewBox="0 0 16 16" xmlns="http://www.w3.org/2000/svg">
    <path id="Vector"
          d="M14.4493 3.26938L5.81241 11.9056C5.75434 11.9639 5.68533 12.0102 5.60934 12.0417C5.53335 12.0733 5.45188 12.0896 5.3696 12.0896C5.28731 12.0896 5.20584 12.0733 5.12985 12.0417C5.05386 12.0102 4.98485 11.9639 4.92678 11.9056L1.58678 8.5625C1.52871 8.50421 1.45971 8.45795 1.38372 8.42639C1.30773 8.39482 1.22625 8.37857 1.14397 8.37857C1.06169 8.37857 0.980213 8.39482 0.904224 8.42639C0.828235 8.45795 0.759226 8.50421 0.701158 8.5625C0.64286 8.62057 0.596602 8.68958 0.565039 8.76557C0.533475 8.84156 0.517227 8.92303 0.517227 9.00532C0.517227 9.0876 0.533475 9.16907 0.565039 9.24506C0.596602 9.32105 0.64286 9.39006 0.701158 9.44813L4.04241 12.7888C4.39488 13.1406 4.87253 13.3382 5.37053 13.3382C5.86853 13.3382 6.34619 13.1406 6.69866 12.7888L15.3349 4.15438C15.3931 4.09632 15.4393 4.02735 15.4708 3.95142C15.5023 3.87549 15.5185 3.79409 15.5185 3.71188C15.5185 3.62967 15.5023 3.54827 15.4708 3.47234C15.4393 3.39641 15.3931 3.32744 15.3349 3.26938C15.2768 3.21108 15.2078 3.16482 15.1318 3.13326C15.0559 3.1017 14.9744 3.08545 14.8921 3.08545C14.8098 3.08545 14.7283 3.1017 14.6523 3.13326C14.5764 3.16482 14.5074 3.21108 14.4493 3.26938Z" />
</svg>
