<svg width="77" height="89" viewBox="0 0 77 89" fill="none" xmlns="http://www.w3.org/2000/svg">
<path d="M30.5037 76.3096C27.5334 76.3096 25.0657 75.8728 23.1007 74.9993C21.1357 74.1257 19.6734 73.2062 18.7137 72.2407C17.7998 71.2292 17.3428 70.6315 17.3428 70.4476L19.0565 67.758C19.0565 67.8959 19.4906 68.4246 20.3589 69.3442C21.2271 70.2177 22.4838 71.0453 24.1289 71.8269C25.8197 72.5625 27.8761 72.9303 30.2981 72.9303C33.177 72.9303 35.4391 72.1028 37.0842 70.4476C38.7293 68.7465 39.5519 66.6545 39.5519 64.1718C39.5519 62.4706 39.1406 61.0454 38.318 59.8959C37.4955 58.7465 36.4673 57.827 35.2334 57.1373C34.0453 56.4477 32.423 55.6661 30.3666 54.7925C27.9904 53.827 26.0711 52.9075 24.6087 52.0339C23.1464 51.1604 21.9126 49.965 20.9072 48.4477C19.9019 46.8845 19.3992 44.9075 19.3992 42.5167C19.3992 38.7466 20.5874 35.7582 22.9636 33.5513C25.3399 31.2984 28.5159 30.172 32.4916 30.172C34.4566 30.172 36.2159 30.4708 37.7697 31.0685C39.3691 31.6202 40.6486 32.2409 41.6083 32.9306C42.5679 33.5743 43.0477 33.9421 43.0477 34.034L42.3623 37.0685C42.3623 36.9765 41.9053 36.6087 40.9913 35.965C40.0774 35.3214 38.9121 34.7237 37.4955 34.172C36.0788 33.6202 34.5023 33.3444 32.7658 33.3444C30.2067 33.3444 28.196 34.057 26.7337 35.4823C25.2714 36.9076 24.5402 38.8386 24.5402 41.2754C24.5402 42.9765 24.9286 44.4018 25.7055 45.5512C26.528 46.6546 27.5334 47.5512 28.7215 48.2408C29.9554 48.9305 31.5776 49.6891 33.5883 50.5167C36.0103 51.5282 37.9524 52.4937 39.4148 53.4132C40.8771 54.2868 42.1109 55.5281 43.1163 57.1373C44.1673 58.7465 44.6928 60.8155 44.6928 63.3442C44.6928 65.8729 44.0988 68.1258 42.9106 70.1028C41.7682 72.0338 40.1231 73.551 37.9753 74.6545C35.8275 75.7579 33.337 76.3096 30.5037 76.3096Z" fill="#353535"/>
<path d="M52.532 56.7361V11.8218H57.7581V56.7361H52.532Z" fill="#353535"/>
<rect x="1" y="1" width="74.9128" height="86.1147" stroke="#353535" stroke-width="2"/>
</svg>
