<svg width="110" height="64" viewBox="0 0 110 64" fill="none" xmlns="http://www.w3.org/2000/svg">
<path d="M27.0041 28.9139C25.1432 28.9139 23.5972 28.6402 22.3661 28.0927C21.1351 27.5453 20.2189 26.969 19.6177 26.3639C19.0451 25.73 18.7588 25.3555 18.7588 25.2402L19.8324 23.5547C19.8324 23.6411 20.1044 23.9724 20.6484 24.5487C21.1923 25.0961 21.9796 25.6148 23.0103 26.1046C24.0696 26.5656 25.3579 26.7961 26.8753 26.7961C28.679 26.7961 30.0961 26.2775 31.1268 25.2402C32.1575 24.1741 32.6728 22.8631 32.6728 21.3072C32.6728 20.2412 32.4151 19.3479 31.8998 18.6276C31.3845 17.9073 30.7403 17.331 29.9673 16.8988C29.2229 16.4666 28.2066 15.9768 26.9182 15.4294C25.4295 14.8243 24.2271 14.248 23.3109 13.7006C22.3948 13.1531 21.6218 12.404 20.9919 11.4532C20.3621 10.4735 20.0471 9.23458 20.0471 7.7363C20.0471 5.37363 20.7915 3.50078 22.2802 2.11776C23.769 0.70592 25.7587 0 28.2495 0C29.4806 0 30.5828 0.187285 31.5562 0.561855C32.5583 0.907612 33.3599 1.29659 33.9611 1.72878C34.5623 2.13216 34.8629 2.36267 34.8629 2.42029L34.4335 4.32196C34.4335 4.26433 34.1472 4.03382 33.5746 3.63044C33.002 3.22706 32.272 2.85249 31.3845 2.50673C30.4969 2.16098 29.5092 1.9881 28.4213 1.9881C26.818 1.9881 25.5583 2.4347 24.6422 3.32791C23.726 4.22111 23.268 5.43126 23.268 6.95835C23.268 8.02443 23.5113 8.91763 23.998 9.63796C24.5134 10.3295 25.1432 10.8913 25.8876 11.3235C26.6606 11.7557 27.6769 12.2311 28.9366 12.7498C30.454 13.3837 31.6707 13.9887 32.5869 14.565C33.503 15.1124 34.276 15.8904 34.9059 16.8988C35.5644 17.9073 35.8936 19.2039 35.8936 20.7886C35.8936 22.3733 35.5214 23.7852 34.7771 25.0241C34.0613 26.2343 33.0307 27.1851 31.6851 27.8766C30.3395 28.5681 28.7792 28.9139 27.0041 28.9139Z" fill="#242325"/>
<path d="M41.9588 28.4817V0.388976H45.2226V28.4817H41.9588Z" fill="#242325"/>
<path d="M57.5325 28.4817V2.46351H49.5878V0.388976H68.784V2.46351H60.7963V28.4817H57.5325Z" fill="#242325"/>
<path d="M73.1187 28.4817V0.388976H88.1492V2.46351H76.3824V13.2684H87.1615V15.2565H76.3824V26.4071H89.094V28.4817H73.1187Z" fill="#242325"/>
<path d="M0 64V35.9073H3.26377V64H0Z" fill="#242325"/>
<path d="M11.3652 64V35.9073H14.7578L29.0153 59.073L28.8865 58.0357V35.9073H31.2484V64H28.4141L13.5553 40.0564H13.5124L13.7271 41.3962V64H11.3652Z" fill="#242325"/>
<path d="M45.0493 64L35.9451 35.9073H39.3377L47.4542 61.5797L55.6995 35.9073H58.1044L48.8284 64H45.0493Z" fill="#242325"/>
<path d="M62.8649 64V35.9073H66.1286V64H62.8649Z" fill="#242325"/>
<path d="M78.4386 64V37.9818H70.4939V35.9073H89.69V37.9818H81.7023V64H78.4386Z" fill="#242325"/>
<path d="M94.0247 64V35.9073H109.055V37.9818H97.2885V48.7867H108.068V50.7748H97.2885V61.9255H110V64H94.0247Z" fill="#242325"/>
</svg>
