<svg width="206" height="111" viewBox="0 0 206 111" fill="none" xmlns="http://www.w3.org/2000/svg">
<path fill-rule="evenodd" clip-rule="evenodd" d="M199.853 29.3321C202.682 23.0974 203.182 17.5053 201.081 12.9041C198.979 8.30278 194.422 5.01429 187.853 3.06019C181.286 1.10651 172.769 0.507748 162.871 1.24428C143.079 2.71703 117.879 9.51997 91.9738 21.3199C66.0688 33.1198 44.4044 47.6642 30.3163 61.6239C23.2708 68.6052 18.1402 75.4207 15.3123 81.654C12.4838 87.8887 11.9834 93.4808 14.0851 98.0821C16.1868 102.683 20.7435 105.972 27.3124 107.926C33.8798 109.88 42.397 110.478 52.2949 109.742C72.0865 108.269 97.2869 101.466 123.192 89.6662C149.097 77.8663 170.761 63.3219 184.849 49.3622C191.895 42.3809 197.025 35.5654 199.853 29.3321ZM123.4 90.121C175.288 66.4853 210.271 31.8213 201.536 12.6968C192.8 -6.42771 143.655 -2.77064 91.766 20.8651C39.8773 44.5008 4.89466 79.1648 13.63 98.2893C22.3654 117.414 71.5109 113.757 123.4 90.121Z" fill="#555454"/>
<path fill-rule="evenodd" clip-rule="evenodd" d="M197.604 67.4465C202.761 63.5397 205.5 59.3288 205.5 55C205.5 50.6712 202.761 46.4603 197.604 42.5535C192.454 38.6528 184.971 35.1186 175.679 32.1416C157.102 26.1895 131.406 22.5 103 22.5C74.5945 22.5 48.8984 26.1895 30.3206 32.1416C21.0288 35.1186 13.5457 38.6528 8.39616 42.5535C3.23856 46.4603 0.5 50.6712 0.5 55C0.5 59.3288 3.23856 63.5397 8.39616 67.4465C13.5457 71.3472 21.0288 74.8814 30.3206 77.8583C48.8984 83.8105 74.5945 87.5 103 87.5C131.406 87.5 157.102 83.8105 175.679 77.8583C184.971 74.8814 192.454 71.3472 197.604 67.4465ZM103 88C159.885 88 206 73.2254 206 55C206 36.7746 159.885 22 103 22C46.1147 22 0 36.7746 0 55C0 73.2254 46.1147 88 103 88Z" fill="#555454"/>
</svg>
