<svg width="9" height="5" viewBox="0 0 9 5" fill="none" xmlns="http://www.w3.org/2000/svg">
<path d="M1.00629 0.125031H7.99379C8.1174 0.125549 8.23808 0.162708 8.34057 0.23181C8.44306 0.300911 8.52276 0.398852 8.56958 0.513247C8.61641 0.627643 8.62827 0.753354 8.60365 0.874487C8.57904 0.99562 8.51906 1.10673 8.43129 1.19378L4.94379 4.68127C4.88569 4.73985 4.81656 4.78635 4.7404 4.81808C4.66424 4.84981 4.58255 4.86615 4.50004 4.86615C4.41753 4.86615 4.33584 4.84981 4.25968 4.81808C4.18352 4.78635 4.11439 4.73985 4.05629 4.68127L0.568791 1.19378C0.481027 1.10673 0.421046 0.99562 0.39643 0.874487C0.371814 0.753354 0.38367 0.627643 0.430498 0.513247C0.477327 0.398852 0.557025 0.300911 0.659515 0.23181C0.762004 0.162708 0.882683 0.125549 1.00629 0.125031V0.125031Z" fill="#555454"/>
</svg>
