<svg width="12" height="8" viewBox="0 0 12 8" fill="none" xmlns="http://www.w3.org/2000/svg">
<path d="M11.9531 0.15625C11.7448 0.979167 11.5365 1.85417 11.3281 2.78125C11.1198 3.70833 10.9271 4.625 10.75 5.53125C10.5833 6.42708 10.4479 7.24479 10.3438 7.98438H6.76562L6.54688 7.64062C6.73438 6.88021 6.97396 6.06771 7.26562 5.20312C7.56771 4.33854 7.89062 3.47396 8.23438 2.60938C8.58854 1.73438 8.94271 0.916667 9.29688 0.15625H11.9531ZM5.4375 0.15625C5.22917 0.979167 5.02083 1.85417 4.8125 2.78125C4.60417 3.70833 4.41146 4.625 4.23438 5.53125C4.06771 6.42708 3.92708 7.24479 3.8125 7.98438H0.25L0.046875 7.64062C0.234375 6.88021 0.473958 6.06771 0.765625 5.20312C1.05729 4.33854 1.375 3.47396 1.71875 2.60938C2.07292 1.73438 2.42708 0.916667 2.78125 0.15625H5.4375Z" fill="#C3CBE2"/>
</svg>
