<svg width="12" height="8" viewBox="0 0 12 8" fill="none" xmlns="http://www.w3.org/2000/svg">
<path d="M11.7187 0.156248L11.9531 0.499998C11.7656 1.26041 11.5208 2.07291 11.2187 2.9375C10.9271 3.80208 10.6094 4.66666 10.2656 5.53125C9.92187 6.39583 9.57292 7.21354 9.21875 7.98437L6.53125 7.98437C6.73958 7.16146 6.94792 6.28646 7.15625 5.35937C7.36458 4.43229 7.55729 3.51562 7.73437 2.60937C7.91146 1.70312 8.05208 0.885415 8.15625 0.156248L11.7187 0.156248ZM5.20312 0.156249L5.42187 0.499999C5.23437 1.26042 4.98958 2.07292 4.6875 2.9375C4.39583 3.80208 4.07812 4.66667 3.73437 5.53125C3.39062 6.39583 3.04167 7.21354 2.6875 7.98437L0.0468745 7.98437C0.192708 7.36979 0.343749 6.72396 0.499999 6.04687C0.656249 5.35937 0.802082 4.67187 0.937499 3.98437C1.08333 3.28646 1.21354 2.61458 1.32812 1.96875C1.45312 1.3125 1.55208 0.708333 1.625 0.15625L5.20312 0.156249Z" fill="#C3CBE2"/>
</svg>
